<?xml version="1.0" ?><!DOCTYPE svg  PUBLIC '-//W3C//DTD SVG 1.1//EN'  'http://www.w3.org/Graphics/SVG/1.1/DTD/svg11.dtd'><svg xmlns="http://www.w3.org/2000/svg" xmlns:xlink="http://www.w3.org/1999/xlink" xmlns:serif="http://www.serif.com/" width="100%" height="100%" viewBox="0 0 64 64" version="1.1" xml:space="preserve" style="fill-rule:evenodd;clip-rule:evenodd;stroke-linejoin:round;stroke-miterlimit:2;"><g><g transform="matrix(1,0,0,0.872727,1,6.25455)"><path d="M62,28.312C62,12.515 50.824,-0.292 37.037,-0.292L24.963,-0.292C11.176,-0.292 0,12.515 0,28.312L0,57C0,58.266 0.895,59.292 2,59.292L37.037,59.292C50.824,59.292 62,46.485 62,30.688L62,28.312ZM58,28.312L58,30.688C58,43.954 48.614,54.708 37.037,54.708L4,54.708C4,54.708 4,28.312 4,28.312C4,15.046 13.386,4.292 24.963,4.292L37.037,4.292C48.614,4.292 58,15.046 58,28.312Z"/></g><g transform="matrix(1,0,0,1,0,-2)"><path d="M30,24L30,50C30,51.104 30.896,52 32,52C33.104,52 34,51.104 34,50L34,24C34,22.896 33.104,22 32,22C30.896,22 30,22.896 30,24Z"/></g><g transform="matrix(0.8,0,0,0.666667,4.4,4.66667)"><ellipse cx="34.5" cy="17" rx="2.5" ry="3"/></g></g></svg>