<?xml version="1.0" ?><!DOCTYPE svg  PUBLIC '-//W3C//DTD SVG 1.1//EN'  'http://www.w3.org/Graphics/SVG/1.1/DTD/svg11.dtd'><svg xmlns="http://www.w3.org/2000/svg" xmlns:xlink="http://www.w3.org/1999/xlink" xmlns:serif="http://www.serif.com/" width="100%" height="100%" viewBox="0 0 64 64" version="1.1" xml:space="preserve" style="fill-rule:evenodd;clip-rule:evenodd;stroke-linejoin:round;stroke-miterlimit:2;"><g><path d="M5,22L3,22C1.895,22 1,22.895 1,24L1,53.277C1,58.647 5.353,63 10.723,63L54,63C56.387,63 58.676,62.052 60.364,60.364C62.052,58.676 63,56.387 63,54C63,40.026 63,12 63,12C63,10.895 62.105,10 61,10L37.127,10C37.127,10 31.722,1.891 31.722,1.891C31.351,1.334 30.727,1 30.058,1L7,1C5.895,1 5,1.895 5,3L5,22ZM9,22L47,22C48.105,22 49,22.895 49,24L49,54C49,55.326 49.527,56.598 50.464,57.536C51.402,58.473 52.674,59 54,59C54,59 54,59 54,59C55.326,59 56.598,58.473 57.536,57.536C58.473,56.598 59,55.326 59,54C59,54 59,14 59,14L36.057,14C35.388,14 34.764,13.666 34.393,13.109C34.393,13.109 28.987,5 28.987,5C28.987,5 9,5 9,5L9,22ZM5,26L45,26C45,26 45,54 45,54C45,55.793 45.535,57.531 46.517,59L10.723,59C7.562,59 5,56.438 5,53.277L5,26ZM56,56L56,18C56,16.895 55.105,16 54,16L12,16C10.896,16 10,16.896 10,18C10,19.104 10.896,20 12,20L52,20C52,20 52,56 52,56C52,57.104 52.896,58 54,58C55.104,58 56,57.104 56,56Z"/></g></svg>